<mxfile host="app.diagrams.net" modified="2021-08-01T17:50:46.821Z" agent="5.0 (Macintosh; Intel Mac OS X 10_15_3) AppleWebKit/605.1.15 (KHTML, like Gecko) Version/13.0.5 Safari/605.1.15" etag="jQMeN9WvXpoLBzFhvEKq" version="14.9.3" type="github">
  <diagram id="R2lEEEUBdFMjLlhIrx00" name="Page-1">
    <mxGraphModel dx="1529" dy="814" grid="1" gridSize="10" guides="1" tooltips="1" connect="1" arrows="1" fold="1" page="1" pageScale="1" pageWidth="850" pageHeight="1100" math="0" shadow="0" extFonts="Permanent Marker^https://fonts.googleapis.com/css?family=Permanent+Marker">
      <root>
        <mxCell id="0" />
        <mxCell id="1" parent="0" />
        <mxCell id="C-vyLk0tnHw3VtMMgP7b-2" value="post detail" style="shape=table;startSize=30;container=1;collapsible=1;childLayout=tableLayout;fixedRows=1;rowLines=0;fontStyle=1;align=center;resizeLast=1;" parent="1" vertex="1">
          <mxGeometry x="450" y="40" width="250" height="180" as="geometry" />
        </mxCell>
        <mxCell id="C-vyLk0tnHw3VtMMgP7b-3" value="" style="shape=partialRectangle;collapsible=0;dropTarget=0;pointerEvents=0;fillColor=none;points=[[0,0.5],[1,0.5]];portConstraint=eastwest;top=0;left=0;right=0;bottom=1;" parent="C-vyLk0tnHw3VtMMgP7b-2" vertex="1">
          <mxGeometry y="30" width="250" height="30" as="geometry" />
        </mxCell>
        <mxCell id="C-vyLk0tnHw3VtMMgP7b-4" value="Field" style="shape=partialRectangle;overflow=hidden;connectable=0;fillColor=none;top=0;left=0;bottom=0;right=0;fontStyle=1;" parent="C-vyLk0tnHw3VtMMgP7b-3" vertex="1">
          <mxGeometry width="100" height="30" as="geometry" />
        </mxCell>
        <mxCell id="C-vyLk0tnHw3VtMMgP7b-5" value="Type" style="shape=partialRectangle;overflow=hidden;connectable=0;fillColor=none;top=0;left=0;bottom=0;right=0;align=left;spacingLeft=6;fontStyle=5;" parent="C-vyLk0tnHw3VtMMgP7b-3" vertex="1">
          <mxGeometry x="100" width="150" height="30" as="geometry" />
        </mxCell>
        <mxCell id="C-vyLk0tnHw3VtMMgP7b-6" value="" style="shape=partialRectangle;collapsible=0;dropTarget=0;pointerEvents=0;fillColor=none;points=[[0,0.5],[1,0.5]];portConstraint=eastwest;top=0;left=0;right=0;bottom=0;" parent="C-vyLk0tnHw3VtMMgP7b-2" vertex="1">
          <mxGeometry y="60" width="250" height="30" as="geometry" />
        </mxCell>
        <mxCell id="C-vyLk0tnHw3VtMMgP7b-7" value="id " style="shape=partialRectangle;overflow=hidden;connectable=0;fillColor=none;top=0;left=0;bottom=0;right=0;" parent="C-vyLk0tnHw3VtMMgP7b-6" vertex="1">
          <mxGeometry width="100" height="30" as="geometry" />
        </mxCell>
        <mxCell id="C-vyLk0tnHw3VtMMgP7b-8" value="IntegerField " style="shape=partialRectangle;overflow=hidden;connectable=0;fillColor=none;top=0;left=0;bottom=0;right=0;align=left;spacingLeft=6;" parent="C-vyLk0tnHw3VtMMgP7b-6" vertex="1">
          <mxGeometry x="100" width="150" height="30" as="geometry" />
        </mxCell>
        <mxCell id="C-vyLk0tnHw3VtMMgP7b-9" value="" style="shape=partialRectangle;collapsible=0;dropTarget=0;pointerEvents=0;fillColor=none;points=[[0,0.5],[1,0.5]];portConstraint=eastwest;top=0;left=0;right=0;bottom=0;" parent="C-vyLk0tnHw3VtMMgP7b-2" vertex="1">
          <mxGeometry y="90" width="250" height="30" as="geometry" />
        </mxCell>
        <mxCell id="C-vyLk0tnHw3VtMMgP7b-10" value="tile" style="shape=partialRectangle;overflow=hidden;connectable=0;fillColor=none;top=0;left=0;bottom=0;right=0;" parent="C-vyLk0tnHw3VtMMgP7b-9" vertex="1">
          <mxGeometry width="100" height="30" as="geometry" />
        </mxCell>
        <mxCell id="C-vyLk0tnHw3VtMMgP7b-11" value="CharFiled" style="shape=partialRectangle;overflow=hidden;connectable=0;fillColor=none;top=0;left=0;bottom=0;right=0;align=left;spacingLeft=6;" parent="C-vyLk0tnHw3VtMMgP7b-9" vertex="1">
          <mxGeometry x="100" width="150" height="30" as="geometry" />
        </mxCell>
        <mxCell id="C-vyLk0tnHw3VtMMgP7b-23" value="user roles" style="shape=table;startSize=30;container=1;collapsible=1;childLayout=tableLayout;fixedRows=1;rowLines=0;fontStyle=1;align=center;resizeLast=1;" parent="1" vertex="1">
          <mxGeometry x="120" y="50" width="250" height="140" as="geometry" />
        </mxCell>
        <mxCell id="C-vyLk0tnHw3VtMMgP7b-24" value="" style="shape=partialRectangle;collapsible=0;dropTarget=0;pointerEvents=0;fillColor=none;points=[[0,0.5],[1,0.5]];portConstraint=eastwest;top=0;left=0;right=0;bottom=1;" parent="C-vyLk0tnHw3VtMMgP7b-23" vertex="1">
          <mxGeometry y="30" width="250" height="30" as="geometry" />
        </mxCell>
        <mxCell id="C-vyLk0tnHw3VtMMgP7b-25" value="Field" style="shape=partialRectangle;overflow=hidden;connectable=0;fillColor=none;top=0;left=0;bottom=0;right=0;fontStyle=1;" parent="C-vyLk0tnHw3VtMMgP7b-24" vertex="1">
          <mxGeometry width="110" height="30" as="geometry" />
        </mxCell>
        <mxCell id="C-vyLk0tnHw3VtMMgP7b-26" value="Type" style="shape=partialRectangle;overflow=hidden;connectable=0;fillColor=none;top=0;left=0;bottom=0;right=0;align=left;spacingLeft=6;fontStyle=5;" parent="C-vyLk0tnHw3VtMMgP7b-24" vertex="1">
          <mxGeometry x="110" width="140" height="30" as="geometry" />
        </mxCell>
        <mxCell id="C-vyLk0tnHw3VtMMgP7b-27" value="" style="shape=partialRectangle;collapsible=0;dropTarget=0;pointerEvents=0;fillColor=none;points=[[0,0.5],[1,0.5]];portConstraint=eastwest;top=0;left=0;right=0;bottom=0;" parent="C-vyLk0tnHw3VtMMgP7b-23" vertex="1">
          <mxGeometry y="60" width="250" height="30" as="geometry" />
        </mxCell>
        <mxCell id="C-vyLk0tnHw3VtMMgP7b-28" value="user id" style="shape=partialRectangle;overflow=hidden;connectable=0;fillColor=none;top=0;left=0;bottom=0;right=0;" parent="C-vyLk0tnHw3VtMMgP7b-27" vertex="1">
          <mxGeometry width="110" height="30" as="geometry" />
        </mxCell>
        <mxCell id="C-vyLk0tnHw3VtMMgP7b-29" value="IntegerField " style="shape=partialRectangle;overflow=hidden;connectable=0;fillColor=none;top=0;left=0;bottom=0;right=0;align=left;spacingLeft=6;" parent="C-vyLk0tnHw3VtMMgP7b-27" vertex="1">
          <mxGeometry x="110" width="140" height="30" as="geometry" />
        </mxCell>
        <mxCell id="XbFfIO6vVPorIeohLpD_-1" value="users" style="shape=table;startSize=25;container=1;collapsible=1;childLayout=tableLayout;fixedRows=1;rowLines=0;fontStyle=1;align=center;resizeLast=1;" vertex="1" parent="1">
          <mxGeometry x="50" y="240" width="220" height="185" as="geometry" />
        </mxCell>
        <mxCell id="XbFfIO6vVPorIeohLpD_-2" value="" style="shape=partialRectangle;collapsible=0;dropTarget=0;pointerEvents=0;fillColor=none;top=0;left=0;bottom=1;right=0;points=[[0,0.5],[1,0.5]];portConstraint=eastwest;" vertex="1" parent="XbFfIO6vVPorIeohLpD_-1">
          <mxGeometry y="25" width="220" height="30" as="geometry" />
        </mxCell>
        <mxCell id="XbFfIO6vVPorIeohLpD_-3" value="Field" style="shape=partialRectangle;connectable=0;fillColor=none;top=0;left=0;bottom=0;right=0;fontStyle=1;overflow=hidden;" vertex="1" parent="XbFfIO6vVPorIeohLpD_-2">
          <mxGeometry width="80" height="30" as="geometry" />
        </mxCell>
        <mxCell id="XbFfIO6vVPorIeohLpD_-4" value="Type" style="shape=partialRectangle;connectable=0;fillColor=none;top=0;left=0;bottom=0;right=0;align=left;spacingLeft=6;fontStyle=5;overflow=hidden;" vertex="1" parent="XbFfIO6vVPorIeohLpD_-2">
          <mxGeometry x="80" width="140" height="30" as="geometry" />
        </mxCell>
        <mxCell id="XbFfIO6vVPorIeohLpD_-5" value="" style="shape=partialRectangle;collapsible=0;dropTarget=0;pointerEvents=0;fillColor=none;top=0;left=0;bottom=0;right=0;points=[[0,0.5],[1,0.5]];portConstraint=eastwest;" vertex="1" parent="XbFfIO6vVPorIeohLpD_-1">
          <mxGeometry y="55" width="220" height="30" as="geometry" />
        </mxCell>
        <mxCell id="XbFfIO6vVPorIeohLpD_-6" value="user id" style="shape=partialRectangle;connectable=0;fillColor=none;top=0;left=0;bottom=0;right=0;editable=1;overflow=hidden;" vertex="1" parent="XbFfIO6vVPorIeohLpD_-5">
          <mxGeometry width="80" height="30" as="geometry" />
        </mxCell>
        <mxCell id="XbFfIO6vVPorIeohLpD_-7" value="IntegerField " style="shape=partialRectangle;connectable=0;fillColor=none;top=0;left=0;bottom=0;right=0;align=left;spacingLeft=6;overflow=hidden;" vertex="1" parent="XbFfIO6vVPorIeohLpD_-5">
          <mxGeometry x="80" width="140" height="30" as="geometry" />
        </mxCell>
        <mxCell id="XbFfIO6vVPorIeohLpD_-8" value="" style="shape=partialRectangle;collapsible=0;dropTarget=0;pointerEvents=0;fillColor=none;top=0;left=0;bottom=0;right=0;points=[[0,0.5],[1,0.5]];portConstraint=eastwest;" vertex="1" parent="XbFfIO6vVPorIeohLpD_-1">
          <mxGeometry y="85" width="220" height="30" as="geometry" />
        </mxCell>
        <mxCell id="XbFfIO6vVPorIeohLpD_-9" value="email" style="shape=partialRectangle;connectable=0;fillColor=none;top=0;left=0;bottom=0;right=0;editable=1;overflow=hidden;" vertex="1" parent="XbFfIO6vVPorIeohLpD_-8">
          <mxGeometry width="80" height="30" as="geometry" />
        </mxCell>
        <mxCell id="XbFfIO6vVPorIeohLpD_-10" value="EmailFiled" style="shape=partialRectangle;connectable=0;fillColor=none;top=0;left=0;bottom=0;right=0;align=left;spacingLeft=6;overflow=hidden;" vertex="1" parent="XbFfIO6vVPorIeohLpD_-8">
          <mxGeometry x="80" width="140" height="30" as="geometry" />
        </mxCell>
        <mxCell id="XbFfIO6vVPorIeohLpD_-11" value="" style="shape=partialRectangle;collapsible=0;dropTarget=0;pointerEvents=0;fillColor=none;top=0;left=0;bottom=0;right=0;points=[[0,0.5],[1,0.5]];portConstraint=eastwest;" vertex="1" parent="XbFfIO6vVPorIeohLpD_-1">
          <mxGeometry y="115" width="220" height="30" as="geometry" />
        </mxCell>
        <mxCell id="XbFfIO6vVPorIeohLpD_-12" value="name" style="shape=partialRectangle;connectable=0;fillColor=none;top=0;left=0;bottom=0;right=0;editable=1;overflow=hidden;" vertex="1" parent="XbFfIO6vVPorIeohLpD_-11">
          <mxGeometry width="80" height="30" as="geometry" />
        </mxCell>
        <mxCell id="XbFfIO6vVPorIeohLpD_-13" value="CharFiled" style="shape=partialRectangle;connectable=0;fillColor=none;top=0;left=0;bottom=0;right=0;align=left;spacingLeft=6;overflow=hidden;" vertex="1" parent="XbFfIO6vVPorIeohLpD_-11">
          <mxGeometry x="80" width="140" height="30" as="geometry" />
        </mxCell>
        <mxCell id="XbFfIO6vVPorIeohLpD_-14" value="picture" style="shape=table;startSize=30;container=1;collapsible=1;childLayout=tableLayout;fixedRows=1;rowLines=0;fontStyle=1;align=center;resizeLast=1;" vertex="1" parent="1">
          <mxGeometry x="60" y="515" width="200" height="180" as="geometry" />
        </mxCell>
        <mxCell id="XbFfIO6vVPorIeohLpD_-15" value="" style="shape=partialRectangle;collapsible=0;dropTarget=0;pointerEvents=0;fillColor=none;top=0;left=0;bottom=1;right=0;points=[[0,0.5],[1,0.5]];portConstraint=eastwest;" vertex="1" parent="XbFfIO6vVPorIeohLpD_-14">
          <mxGeometry y="30" width="200" height="30" as="geometry" />
        </mxCell>
        <mxCell id="XbFfIO6vVPorIeohLpD_-16" value="Field" style="shape=partialRectangle;connectable=0;fillColor=none;top=0;left=0;bottom=0;right=0;fontStyle=1;overflow=hidden;" vertex="1" parent="XbFfIO6vVPorIeohLpD_-15">
          <mxGeometry width="80" height="30" as="geometry" />
        </mxCell>
        <mxCell id="XbFfIO6vVPorIeohLpD_-17" value="Type" style="shape=partialRectangle;connectable=0;fillColor=none;top=0;left=0;bottom=0;right=0;align=left;spacingLeft=6;fontStyle=5;overflow=hidden;" vertex="1" parent="XbFfIO6vVPorIeohLpD_-15">
          <mxGeometry x="80" width="120" height="30" as="geometry" />
        </mxCell>
        <mxCell id="XbFfIO6vVPorIeohLpD_-18" value="" style="shape=partialRectangle;collapsible=0;dropTarget=0;pointerEvents=0;fillColor=none;top=0;left=0;bottom=0;right=0;points=[[0,0.5],[1,0.5]];portConstraint=eastwest;" vertex="1" parent="XbFfIO6vVPorIeohLpD_-14">
          <mxGeometry y="60" width="200" height="30" as="geometry" />
        </mxCell>
        <mxCell id="XbFfIO6vVPorIeohLpD_-19" value="" style="shape=partialRectangle;connectable=0;fillColor=none;top=0;left=0;bottom=0;right=0;editable=1;overflow=hidden;" vertex="1" parent="XbFfIO6vVPorIeohLpD_-18">
          <mxGeometry width="80" height="30" as="geometry" />
        </mxCell>
        <mxCell id="XbFfIO6vVPorIeohLpD_-20" value="" style="shape=partialRectangle;connectable=0;fillColor=none;top=0;left=0;bottom=0;right=0;align=left;spacingLeft=6;overflow=hidden;" vertex="1" parent="XbFfIO6vVPorIeohLpD_-18">
          <mxGeometry x="80" width="120" height="30" as="geometry" />
        </mxCell>
        <mxCell id="XbFfIO6vVPorIeohLpD_-21" value="" style="shape=partialRectangle;collapsible=0;dropTarget=0;pointerEvents=0;fillColor=none;top=0;left=0;bottom=0;right=0;points=[[0,0.5],[1,0.5]];portConstraint=eastwest;" vertex="1" parent="XbFfIO6vVPorIeohLpD_-14">
          <mxGeometry y="90" width="200" height="30" as="geometry" />
        </mxCell>
        <mxCell id="XbFfIO6vVPorIeohLpD_-22" value="" style="shape=partialRectangle;connectable=0;fillColor=none;top=0;left=0;bottom=0;right=0;editable=1;overflow=hidden;" vertex="1" parent="XbFfIO6vVPorIeohLpD_-21">
          <mxGeometry width="80" height="30" as="geometry" />
        </mxCell>
        <mxCell id="XbFfIO6vVPorIeohLpD_-23" value="" style="shape=partialRectangle;connectable=0;fillColor=none;top=0;left=0;bottom=0;right=0;align=left;spacingLeft=6;overflow=hidden;" vertex="1" parent="XbFfIO6vVPorIeohLpD_-21">
          <mxGeometry x="80" width="120" height="30" as="geometry" />
        </mxCell>
        <mxCell id="XbFfIO6vVPorIeohLpD_-24" value="" style="shape=partialRectangle;collapsible=0;dropTarget=0;pointerEvents=0;fillColor=none;top=0;left=0;bottom=0;right=0;points=[[0,0.5],[1,0.5]];portConstraint=eastwest;" vertex="1" parent="XbFfIO6vVPorIeohLpD_-14">
          <mxGeometry y="120" width="200" height="30" as="geometry" />
        </mxCell>
        <mxCell id="XbFfIO6vVPorIeohLpD_-25" value="picture " style="shape=partialRectangle;connectable=0;fillColor=none;top=0;left=0;bottom=0;right=0;editable=1;overflow=hidden;" vertex="1" parent="XbFfIO6vVPorIeohLpD_-24">
          <mxGeometry width="80" height="30" as="geometry" />
        </mxCell>
        <mxCell id="XbFfIO6vVPorIeohLpD_-26" value="ImageFiled" style="shape=partialRectangle;connectable=0;fillColor=none;top=0;left=0;bottom=0;right=0;align=left;spacingLeft=6;overflow=hidden;" vertex="1" parent="XbFfIO6vVPorIeohLpD_-24">
          <mxGeometry x="80" width="120" height="30" as="geometry" />
        </mxCell>
        <mxCell id="XbFfIO6vVPorIeohLpD_-27" value="comment" style="shape=table;startSize=30;container=1;collapsible=1;childLayout=tableLayout;fixedRows=1;rowLines=0;fontStyle=1;align=center;resizeLast=1;" vertex="1" parent="1">
          <mxGeometry x="590" y="510" width="250" height="190" as="geometry" />
        </mxCell>
        <mxCell id="XbFfIO6vVPorIeohLpD_-28" value="" style="shape=partialRectangle;collapsible=0;dropTarget=0;pointerEvents=0;fillColor=none;top=0;left=0;bottom=1;right=0;points=[[0,0.5],[1,0.5]];portConstraint=eastwest;" vertex="1" parent="XbFfIO6vVPorIeohLpD_-27">
          <mxGeometry y="30" width="250" height="30" as="geometry" />
        </mxCell>
        <mxCell id="XbFfIO6vVPorIeohLpD_-29" value="Field" style="shape=partialRectangle;connectable=0;fillColor=none;top=0;left=0;bottom=0;right=0;fontStyle=1;overflow=hidden;" vertex="1" parent="XbFfIO6vVPorIeohLpD_-28">
          <mxGeometry width="110" height="30" as="geometry" />
        </mxCell>
        <mxCell id="XbFfIO6vVPorIeohLpD_-30" value="Type" style="shape=partialRectangle;connectable=0;fillColor=none;top=0;left=0;bottom=0;right=0;align=left;spacingLeft=6;fontStyle=5;overflow=hidden;" vertex="1" parent="XbFfIO6vVPorIeohLpD_-28">
          <mxGeometry x="110" width="140" height="30" as="geometry" />
        </mxCell>
        <mxCell id="XbFfIO6vVPorIeohLpD_-31" value="" style="shape=partialRectangle;collapsible=0;dropTarget=0;pointerEvents=0;fillColor=none;top=0;left=0;bottom=0;right=0;points=[[0,0.5],[1,0.5]];portConstraint=eastwest;" vertex="1" parent="XbFfIO6vVPorIeohLpD_-27">
          <mxGeometry y="60" width="250" height="30" as="geometry" />
        </mxCell>
        <mxCell id="XbFfIO6vVPorIeohLpD_-32" value="user id " style="shape=partialRectangle;connectable=0;fillColor=none;top=0;left=0;bottom=0;right=0;editable=1;overflow=hidden;" vertex="1" parent="XbFfIO6vVPorIeohLpD_-31">
          <mxGeometry width="110" height="30" as="geometry" />
        </mxCell>
        <mxCell id="XbFfIO6vVPorIeohLpD_-33" value="IntegerField " style="shape=partialRectangle;connectable=0;fillColor=none;top=0;left=0;bottom=0;right=0;align=left;spacingLeft=6;overflow=hidden;" vertex="1" parent="XbFfIO6vVPorIeohLpD_-31">
          <mxGeometry x="110" width="140" height="30" as="geometry" />
        </mxCell>
        <mxCell id="XbFfIO6vVPorIeohLpD_-34" value="" style="shape=partialRectangle;collapsible=0;dropTarget=0;pointerEvents=0;fillColor=none;top=0;left=0;bottom=0;right=0;points=[[0,0.5],[1,0.5]];portConstraint=eastwest;" vertex="1" parent="XbFfIO6vVPorIeohLpD_-27">
          <mxGeometry y="90" width="250" height="30" as="geometry" />
        </mxCell>
        <mxCell id="XbFfIO6vVPorIeohLpD_-35" value="post id" style="shape=partialRectangle;connectable=0;fillColor=none;top=0;left=0;bottom=0;right=0;editable=1;overflow=hidden;" vertex="1" parent="XbFfIO6vVPorIeohLpD_-34">
          <mxGeometry width="110" height="30" as="geometry" />
        </mxCell>
        <mxCell id="XbFfIO6vVPorIeohLpD_-36" value="IntegerField " style="shape=partialRectangle;connectable=0;fillColor=none;top=0;left=0;bottom=0;right=0;align=left;spacingLeft=6;overflow=hidden;" vertex="1" parent="XbFfIO6vVPorIeohLpD_-34">
          <mxGeometry x="110" width="140" height="30" as="geometry" />
        </mxCell>
        <mxCell id="XbFfIO6vVPorIeohLpD_-37" value="" style="shape=partialRectangle;collapsible=0;dropTarget=0;pointerEvents=0;fillColor=none;top=0;left=0;bottom=0;right=0;points=[[0,0.5],[1,0.5]];portConstraint=eastwest;" vertex="1" parent="XbFfIO6vVPorIeohLpD_-27">
          <mxGeometry y="120" width="250" height="30" as="geometry" />
        </mxCell>
        <mxCell id="XbFfIO6vVPorIeohLpD_-38" value="description" style="shape=partialRectangle;connectable=0;fillColor=none;top=0;left=0;bottom=0;right=0;editable=1;overflow=hidden;" vertex="1" parent="XbFfIO6vVPorIeohLpD_-37">
          <mxGeometry width="110" height="30" as="geometry" />
        </mxCell>
        <mxCell id="XbFfIO6vVPorIeohLpD_-39" value="TextField" style="shape=partialRectangle;connectable=0;fillColor=none;top=0;left=0;bottom=0;right=0;align=left;spacingLeft=6;overflow=hidden;" vertex="1" parent="XbFfIO6vVPorIeohLpD_-37">
          <mxGeometry x="110" width="140" height="30" as="geometry" />
        </mxCell>
        <mxCell id="XbFfIO6vVPorIeohLpD_-40" value="label" style="shape=table;startSize=30;container=1;collapsible=1;childLayout=tableLayout;fixedRows=1;rowLines=0;fontStyle=1;align=center;resizeLast=1;" vertex="1" parent="1">
          <mxGeometry x="280" y="660" width="235" height="160" as="geometry" />
        </mxCell>
        <mxCell id="XbFfIO6vVPorIeohLpD_-41" value="" style="shape=partialRectangle;collapsible=0;dropTarget=0;pointerEvents=0;fillColor=none;top=0;left=0;bottom=1;right=0;points=[[0,0.5],[1,0.5]];portConstraint=eastwest;" vertex="1" parent="XbFfIO6vVPorIeohLpD_-40">
          <mxGeometry y="30" width="235" height="30" as="geometry" />
        </mxCell>
        <mxCell id="XbFfIO6vVPorIeohLpD_-42" value="Field" style="shape=partialRectangle;connectable=0;fillColor=none;top=0;left=0;bottom=0;right=0;fontStyle=1;overflow=hidden;" vertex="1" parent="XbFfIO6vVPorIeohLpD_-41">
          <mxGeometry width="90" height="30" as="geometry" />
        </mxCell>
        <mxCell id="XbFfIO6vVPorIeohLpD_-43" value="Type" style="shape=partialRectangle;connectable=0;fillColor=none;top=0;left=0;bottom=0;right=0;align=left;spacingLeft=6;fontStyle=5;overflow=hidden;" vertex="1" parent="XbFfIO6vVPorIeohLpD_-41">
          <mxGeometry x="90" width="145" height="30" as="geometry" />
        </mxCell>
        <mxCell id="XbFfIO6vVPorIeohLpD_-44" value="" style="shape=partialRectangle;collapsible=0;dropTarget=0;pointerEvents=0;fillColor=none;top=0;left=0;bottom=0;right=0;points=[[0,0.5],[1,0.5]];portConstraint=eastwest;" vertex="1" parent="XbFfIO6vVPorIeohLpD_-40">
          <mxGeometry y="60" width="235" height="30" as="geometry" />
        </mxCell>
        <mxCell id="XbFfIO6vVPorIeohLpD_-45" value="id " style="shape=partialRectangle;connectable=0;fillColor=none;top=0;left=0;bottom=0;right=0;editable=1;overflow=hidden;" vertex="1" parent="XbFfIO6vVPorIeohLpD_-44">
          <mxGeometry width="90" height="30" as="geometry" />
        </mxCell>
        <mxCell id="XbFfIO6vVPorIeohLpD_-46" value="IntegerField " style="shape=partialRectangle;connectable=0;fillColor=none;top=0;left=0;bottom=0;right=0;align=left;spacingLeft=6;overflow=hidden;" vertex="1" parent="XbFfIO6vVPorIeohLpD_-44">
          <mxGeometry x="90" width="145" height="30" as="geometry" />
        </mxCell>
        <mxCell id="XbFfIO6vVPorIeohLpD_-47" value="" style="shape=partialRectangle;collapsible=0;dropTarget=0;pointerEvents=0;fillColor=none;top=0;left=0;bottom=0;right=0;points=[[0,0.5],[1,0.5]];portConstraint=eastwest;" vertex="1" parent="XbFfIO6vVPorIeohLpD_-40">
          <mxGeometry y="90" width="235" height="30" as="geometry" />
        </mxCell>
        <mxCell id="XbFfIO6vVPorIeohLpD_-48" value="name" style="shape=partialRectangle;connectable=0;fillColor=none;top=0;left=0;bottom=0;right=0;editable=1;overflow=hidden;" vertex="1" parent="XbFfIO6vVPorIeohLpD_-47">
          <mxGeometry width="90" height="30" as="geometry" />
        </mxCell>
        <mxCell id="XbFfIO6vVPorIeohLpD_-49" value="CharFiled" style="shape=partialRectangle;connectable=0;fillColor=none;top=0;left=0;bottom=0;right=0;align=left;spacingLeft=6;overflow=hidden;" vertex="1" parent="XbFfIO6vVPorIeohLpD_-47">
          <mxGeometry x="90" width="145" height="30" as="geometry" />
        </mxCell>
        <mxCell id="XbFfIO6vVPorIeohLpD_-50" value="" style="shape=partialRectangle;collapsible=0;dropTarget=0;pointerEvents=0;fillColor=none;top=0;left=0;bottom=0;right=0;points=[[0,0.5],[1,0.5]];portConstraint=eastwest;" vertex="1" parent="XbFfIO6vVPorIeohLpD_-40">
          <mxGeometry y="120" width="235" height="30" as="geometry" />
        </mxCell>
        <mxCell id="XbFfIO6vVPorIeohLpD_-51" value="" style="shape=partialRectangle;connectable=0;fillColor=none;top=0;left=0;bottom=0;right=0;editable=1;overflow=hidden;" vertex="1" parent="XbFfIO6vVPorIeohLpD_-50">
          <mxGeometry width="90" height="30" as="geometry" />
        </mxCell>
        <mxCell id="XbFfIO6vVPorIeohLpD_-52" value="" style="shape=partialRectangle;connectable=0;fillColor=none;top=0;left=0;bottom=0;right=0;align=left;spacingLeft=6;overflow=hidden;" vertex="1" parent="XbFfIO6vVPorIeohLpD_-50">
          <mxGeometry x="90" width="145" height="30" as="geometry" />
        </mxCell>
        <mxCell id="XbFfIO6vVPorIeohLpD_-84" value="description" style="text;html=1;align=center;verticalAlign=middle;resizable=0;points=[];autosize=1;strokeColor=none;" vertex="1" parent="1">
          <mxGeometry x="460" y="160" width="80" height="20" as="geometry" />
        </mxCell>
        <mxCell id="XbFfIO6vVPorIeohLpD_-85" value="picture&amp;nbsp;" style="text;html=1;align=center;verticalAlign=middle;resizable=0;points=[];autosize=1;strokeColor=none;" vertex="1" parent="1">
          <mxGeometry x="470" y="190" width="60" height="20" as="geometry" />
        </mxCell>
        <mxCell id="XbFfIO6vVPorIeohLpD_-86" value="&lt;span style=&quot;text-align: left&quot;&gt;CharFiled&lt;/span&gt;" style="text;html=1;align=center;verticalAlign=middle;resizable=0;points=[];autosize=1;strokeColor=none;" vertex="1" parent="1">
          <mxGeometry x="550" y="160" width="80" height="20" as="geometry" />
        </mxCell>
        <mxCell id="XbFfIO6vVPorIeohLpD_-87" value="posts" style="shape=table;startSize=30;container=1;collapsible=1;childLayout=tableLayout;fixedRows=1;rowLines=0;fontStyle=1;align=center;resizeLast=1;" vertex="1" parent="1">
          <mxGeometry x="345" y="250" width="230" height="370" as="geometry" />
        </mxCell>
        <mxCell id="XbFfIO6vVPorIeohLpD_-88" value="" style="shape=partialRectangle;collapsible=0;dropTarget=0;pointerEvents=0;fillColor=none;top=0;left=0;bottom=1;right=0;points=[[0,0.5],[1,0.5]];portConstraint=eastwest;" vertex="1" parent="XbFfIO6vVPorIeohLpD_-87">
          <mxGeometry y="30" width="230" height="30" as="geometry" />
        </mxCell>
        <mxCell id="XbFfIO6vVPorIeohLpD_-89" value="Field" style="shape=partialRectangle;connectable=0;fillColor=none;top=0;left=0;bottom=0;right=0;fontStyle=1;overflow=hidden;" vertex="1" parent="XbFfIO6vVPorIeohLpD_-88">
          <mxGeometry width="80" height="30" as="geometry" />
        </mxCell>
        <mxCell id="XbFfIO6vVPorIeohLpD_-90" value="Type" style="shape=partialRectangle;connectable=0;fillColor=none;top=0;left=0;bottom=0;right=0;align=left;spacingLeft=6;fontStyle=5;overflow=hidden;" vertex="1" parent="XbFfIO6vVPorIeohLpD_-88">
          <mxGeometry x="80" width="150" height="30" as="geometry" />
        </mxCell>
        <mxCell id="XbFfIO6vVPorIeohLpD_-94" value="" style="shape=partialRectangle;collapsible=0;dropTarget=0;pointerEvents=0;fillColor=none;top=0;left=0;bottom=0;right=0;points=[[0,0.5],[1,0.5]];portConstraint=eastwest;" vertex="1" parent="XbFfIO6vVPorIeohLpD_-87">
          <mxGeometry y="60" width="230" height="30" as="geometry" />
        </mxCell>
        <mxCell id="XbFfIO6vVPorIeohLpD_-95" value="like" style="shape=partialRectangle;connectable=0;fillColor=none;top=0;left=0;bottom=0;right=0;editable=1;overflow=hidden;" vertex="1" parent="XbFfIO6vVPorIeohLpD_-94">
          <mxGeometry width="80" height="30" as="geometry" />
        </mxCell>
        <mxCell id="XbFfIO6vVPorIeohLpD_-96" value="IntegerField " style="shape=partialRectangle;connectable=0;fillColor=none;top=0;left=0;bottom=0;right=0;align=left;spacingLeft=6;overflow=hidden;" vertex="1" parent="XbFfIO6vVPorIeohLpD_-94">
          <mxGeometry x="80" width="150" height="30" as="geometry" />
        </mxCell>
        <mxCell id="XbFfIO6vVPorIeohLpD_-97" value="" style="shape=partialRectangle;collapsible=0;dropTarget=0;pointerEvents=0;fillColor=none;top=0;left=0;bottom=0;right=0;points=[[0,0.5],[1,0.5]];portConstraint=eastwest;" vertex="1" parent="XbFfIO6vVPorIeohLpD_-87">
          <mxGeometry y="90" width="230" height="30" as="geometry" />
        </mxCell>
        <mxCell id="XbFfIO6vVPorIeohLpD_-98" value="label" style="shape=partialRectangle;connectable=0;fillColor=none;top=0;left=0;bottom=0;right=0;editable=1;overflow=hidden;" vertex="1" parent="XbFfIO6vVPorIeohLpD_-97">
          <mxGeometry width="80" height="30" as="geometry" />
        </mxCell>
        <mxCell id="XbFfIO6vVPorIeohLpD_-99" value="onetomanyfield" style="shape=partialRectangle;connectable=0;fillColor=none;top=0;left=0;bottom=0;right=0;align=left;spacingLeft=6;overflow=hidden;" vertex="1" parent="XbFfIO6vVPorIeohLpD_-97">
          <mxGeometry x="80" width="150" height="30" as="geometry" />
        </mxCell>
        <mxCell id="XbFfIO6vVPorIeohLpD_-91" value="" style="shape=partialRectangle;collapsible=0;dropTarget=0;pointerEvents=0;fillColor=none;top=0;left=0;bottom=0;right=0;points=[[0,0.5],[1,0.5]];portConstraint=eastwest;" vertex="1" parent="XbFfIO6vVPorIeohLpD_-87">
          <mxGeometry y="120" width="230" height="30" as="geometry" />
        </mxCell>
        <mxCell id="XbFfIO6vVPorIeohLpD_-92" value="" style="shape=partialRectangle;connectable=0;fillColor=none;top=0;left=0;bottom=0;right=0;editable=1;overflow=hidden;" vertex="1" parent="XbFfIO6vVPorIeohLpD_-91">
          <mxGeometry width="80" height="30" as="geometry" />
        </mxCell>
        <mxCell id="XbFfIO6vVPorIeohLpD_-93" value="" style="shape=partialRectangle;connectable=0;fillColor=none;top=0;left=0;bottom=0;right=0;align=left;spacingLeft=6;overflow=hidden;" vertex="1" parent="XbFfIO6vVPorIeohLpD_-91">
          <mxGeometry x="80" width="150" height="30" as="geometry" />
        </mxCell>
        <mxCell id="XbFfIO6vVPorIeohLpD_-101" value="&amp;nbsp;id" style="text;html=1;align=center;verticalAlign=middle;resizable=0;points=[];autosize=1;strokeColor=none;" vertex="1" parent="1">
          <mxGeometry x="360" y="400" width="30" height="20" as="geometry" />
        </mxCell>
        <mxCell id="XbFfIO6vVPorIeohLpD_-103" value="star" style="text;html=1;align=center;verticalAlign=middle;resizable=0;points=[];autosize=1;strokeColor=none;" vertex="1" parent="1">
          <mxGeometry x="360" y="440" width="40" height="20" as="geometry" />
        </mxCell>
        <mxCell id="XbFfIO6vVPorIeohLpD_-107" value="&lt;span style=&quot;font-weight: 600 ; color: rgb(18 , 18 , 18)&quot;&gt;IntegerField&lt;/span&gt;&lt;span style=&quot;color: rgb(18 , 18 , 18) ; font-size: medium ; background-color: rgb(255 , 255 , 255)&quot;&gt;&amp;nbsp;&lt;/span&gt;" style="text;html=1;align=center;verticalAlign=middle;resizable=0;points=[];autosize=1;strokeColor=none;" vertex="1" parent="1">
          <mxGeometry x="430" y="400" width="100" height="20" as="geometry" />
        </mxCell>
        <mxCell id="XbFfIO6vVPorIeohLpD_-108" value="&lt;span style=&quot;font-weight: 600 ; color: rgb(18 , 18 , 18) ; font-family: , &amp;#34;blinkmacsystemfont&amp;#34; , &amp;#34;helvetica neue&amp;#34; , &amp;#34;pingfang sc&amp;#34; , &amp;#34;microsoft yahei&amp;#34; , &amp;#34;source han sans sc&amp;#34; , &amp;#34;noto sans cjk sc&amp;#34; , &amp;#34;wenquanyi micro hei&amp;#34; , sans-serif&quot;&gt;IntegerField&lt;/span&gt;&lt;span style=&quot;color: rgb(18 , 18 , 18) ; font-family: , &amp;#34;blinkmacsystemfont&amp;#34; , &amp;#34;helvetica neue&amp;#34; , &amp;#34;pingfang sc&amp;#34; , &amp;#34;microsoft yahei&amp;#34; , &amp;#34;source han sans sc&amp;#34; , &amp;#34;noto sans cjk sc&amp;#34; , &amp;#34;wenquanyi micro hei&amp;#34; , sans-serif ; font-size: medium ; background-color: rgb(255 , 255 , 255)&quot;&gt;&amp;nbsp;&lt;/span&gt;" style="text;html=1;align=center;verticalAlign=middle;resizable=0;points=[];autosize=1;strokeColor=none;" vertex="1" parent="1">
          <mxGeometry x="440" y="440" width="100" height="20" as="geometry" />
        </mxCell>
        <mxCell id="XbFfIO6vVPorIeohLpD_-110" value="picture&amp;nbsp;" style="text;html=1;align=center;verticalAlign=middle;resizable=0;points=[];autosize=1;strokeColor=none;" vertex="1" parent="1">
          <mxGeometry x="350" y="480" width="60" height="20" as="geometry" />
        </mxCell>
        <mxCell id="XbFfIO6vVPorIeohLpD_-112" value="&lt;font color=&quot;#121212&quot;&gt;&lt;span style=&quot;font-weight: 600&quot;&gt;onetomanyfield&lt;/span&gt;&lt;/font&gt;" style="text;html=1;align=center;verticalAlign=middle;resizable=0;points=[];autosize=1;strokeColor=none;" vertex="1" parent="1">
          <mxGeometry x="550" y="190" width="120" height="20" as="geometry" />
        </mxCell>
        <mxCell id="XbFfIO6vVPorIeohLpD_-113" value="role id" style="text;html=1;align=center;verticalAlign=middle;resizable=0;points=[];autosize=1;strokeColor=none;" vertex="1" parent="1">
          <mxGeometry x="145" y="150" width="50" height="20" as="geometry" />
        </mxCell>
        <mxCell id="XbFfIO6vVPorIeohLpD_-114" value="&lt;span style=&quot;font-weight: 600 ; color: rgb(18 , 18 , 18)&quot;&gt;IntegerField&lt;/span&gt;&lt;span style=&quot;color: rgb(18 , 18 , 18) ; font-size: medium ; background-color: rgb(255 , 255 , 255)&quot;&gt;&amp;nbsp;&lt;/span&gt;" style="text;html=1;align=center;verticalAlign=middle;resizable=0;points=[];autosize=1;strokeColor=none;" vertex="1" parent="1">
          <mxGeometry x="240" y="150" width="100" height="20" as="geometry" />
        </mxCell>
        <mxCell id="XbFfIO6vVPorIeohLpD_-115" value="id" style="text;html=1;align=center;verticalAlign=middle;resizable=0;points=[];autosize=1;strokeColor=none;" vertex="1" parent="1">
          <mxGeometry x="80" y="610" width="30" height="20" as="geometry" />
        </mxCell>
        <mxCell id="XbFfIO6vVPorIeohLpD_-116" value="&lt;font color=&quot;#121212&quot;&gt;&lt;span style=&quot;font-weight: 600&quot;&gt;onetoonefield&lt;/span&gt;&lt;/font&gt;" style="text;html=1;align=center;verticalAlign=middle;resizable=0;points=[];autosize=1;strokeColor=none;" vertex="1" parent="1">
          <mxGeometry x="435" y="480" width="110" height="20" as="geometry" />
        </mxCell>
        <mxCell id="XbFfIO6vVPorIeohLpD_-117" value="roles" style="shape=table;startSize=30;container=1;collapsible=1;childLayout=tableLayout;fixedRows=1;rowLines=0;fontStyle=1;align=center;resizeLast=1;" vertex="1" parent="1">
          <mxGeometry x="600" y="240" width="220" height="120" as="geometry" />
        </mxCell>
        <mxCell id="XbFfIO6vVPorIeohLpD_-118" value="" style="shape=partialRectangle;collapsible=0;dropTarget=0;pointerEvents=0;fillColor=none;top=0;left=0;bottom=1;right=0;points=[[0,0.5],[1,0.5]];portConstraint=eastwest;" vertex="1" parent="XbFfIO6vVPorIeohLpD_-117">
          <mxGeometry y="30" width="220" height="30" as="geometry" />
        </mxCell>
        <mxCell id="XbFfIO6vVPorIeohLpD_-119" value="Field" style="shape=partialRectangle;connectable=0;fillColor=none;top=0;left=0;bottom=0;right=0;fontStyle=1;overflow=hidden;" vertex="1" parent="XbFfIO6vVPorIeohLpD_-118">
          <mxGeometry width="90" height="30" as="geometry" />
        </mxCell>
        <mxCell id="XbFfIO6vVPorIeohLpD_-120" value="Type" style="shape=partialRectangle;connectable=0;fillColor=none;top=0;left=0;bottom=0;right=0;align=left;spacingLeft=6;fontStyle=5;overflow=hidden;" vertex="1" parent="XbFfIO6vVPorIeohLpD_-118">
          <mxGeometry x="90" width="130" height="30" as="geometry" />
        </mxCell>
        <mxCell id="XbFfIO6vVPorIeohLpD_-121" value="" style="shape=partialRectangle;collapsible=0;dropTarget=0;pointerEvents=0;fillColor=none;top=0;left=0;bottom=0;right=0;points=[[0,0.5],[1,0.5]];portConstraint=eastwest;" vertex="1" parent="XbFfIO6vVPorIeohLpD_-117">
          <mxGeometry y="60" width="220" height="30" as="geometry" />
        </mxCell>
        <mxCell id="XbFfIO6vVPorIeohLpD_-122" value="id" style="shape=partialRectangle;connectable=0;fillColor=none;top=0;left=0;bottom=0;right=0;editable=1;overflow=hidden;" vertex="1" parent="XbFfIO6vVPorIeohLpD_-121">
          <mxGeometry width="90" height="30" as="geometry" />
        </mxCell>
        <mxCell id="XbFfIO6vVPorIeohLpD_-123" value="IntegerField " style="shape=partialRectangle;connectable=0;fillColor=none;top=0;left=0;bottom=0;right=0;align=left;spacingLeft=6;overflow=hidden;" vertex="1" parent="XbFfIO6vVPorIeohLpD_-121">
          <mxGeometry x="90" width="130" height="30" as="geometry" />
        </mxCell>
        <mxCell id="XbFfIO6vVPorIeohLpD_-127" value="" style="shape=partialRectangle;collapsible=0;dropTarget=0;pointerEvents=0;fillColor=none;top=0;left=0;bottom=0;right=0;points=[[0,0.5],[1,0.5]];portConstraint=eastwest;" vertex="1" parent="XbFfIO6vVPorIeohLpD_-117">
          <mxGeometry y="90" width="220" height="30" as="geometry" />
        </mxCell>
        <mxCell id="XbFfIO6vVPorIeohLpD_-128" value="name" style="shape=partialRectangle;connectable=0;fillColor=none;top=0;left=0;bottom=0;right=0;editable=1;overflow=hidden;" vertex="1" parent="XbFfIO6vVPorIeohLpD_-127">
          <mxGeometry width="90" height="30" as="geometry" />
        </mxCell>
        <mxCell id="XbFfIO6vVPorIeohLpD_-129" value="CharField" style="shape=partialRectangle;connectable=0;fillColor=none;top=0;left=0;bottom=0;right=0;align=left;spacingLeft=6;overflow=hidden;" vertex="1" parent="XbFfIO6vVPorIeohLpD_-127">
          <mxGeometry x="90" width="130" height="30" as="geometry" />
        </mxCell>
        <mxCell id="XbFfIO6vVPorIeohLpD_-131" value="&lt;span style=&quot;font-weight: 600 ; color: rgb(18 , 18 , 18)&quot;&gt;IntegerField&lt;/span&gt;&lt;span style=&quot;color: rgb(18 , 18 , 18) ; font-size: medium ; background-color: rgb(255 , 255 , 255)&quot;&gt;&amp;nbsp;&lt;/span&gt;" style="text;html=1;align=center;verticalAlign=middle;resizable=0;points=[];autosize=1;strokeColor=none;" vertex="1" parent="1">
          <mxGeometry x="140" y="610" width="100" height="20" as="geometry" />
        </mxCell>
        <mxCell id="XbFfIO6vVPorIeohLpD_-136" value="post detail&amp;nbsp;" style="text;html=1;align=center;verticalAlign=middle;resizable=0;points=[];autosize=1;strokeColor=none;" vertex="1" parent="1">
          <mxGeometry x="345" y="510" width="80" height="20" as="geometry" />
        </mxCell>
        <mxCell id="XbFfIO6vVPorIeohLpD_-137" value="onetoonefield" style="text;html=1;align=center;verticalAlign=middle;resizable=0;points=[];autosize=1;strokeColor=none;" vertex="1" parent="1">
          <mxGeometry x="430" y="510" width="100" height="20" as="geometry" />
        </mxCell>
        <mxCell id="XbFfIO6vVPorIeohLpD_-138" value="id" style="text;html=1;align=center;verticalAlign=middle;resizable=0;points=[];autosize=1;strokeColor=none;" vertex="1" parent="1">
          <mxGeometry x="630" y="670" width="30" height="20" as="geometry" />
        </mxCell>
        <mxCell id="XbFfIO6vVPorIeohLpD_-139" value="&lt;span style=&quot;text-align: left&quot;&gt;IntegerField&amp;nbsp;&lt;/span&gt;" style="text;html=1;align=center;verticalAlign=middle;resizable=0;points=[];autosize=1;strokeColor=none;" vertex="1" parent="1">
          <mxGeometry x="720" y="670" width="90" height="20" as="geometry" />
        </mxCell>
        <mxCell id="XbFfIO6vVPorIeohLpD_-141" value="is rotation" style="text;html=1;align=center;verticalAlign=middle;resizable=0;points=[];autosize=1;strokeColor=none;" vertex="1" parent="1">
          <mxGeometry x="345" y="550" width="80" height="20" as="geometry" />
        </mxCell>
        <mxCell id="XbFfIO6vVPorIeohLpD_-142" value="&lt;span style=&quot;text-align: left&quot;&gt;BooleanFiled&lt;/span&gt;" style="text;html=1;align=center;verticalAlign=middle;resizable=0;points=[];autosize=1;strokeColor=none;" vertex="1" parent="1">
          <mxGeometry x="440" y="550" width="100" height="20" as="geometry" />
        </mxCell>
        <mxCell id="XbFfIO6vVPorIeohLpD_-143" value="is cover" style="text;html=1;align=center;verticalAlign=middle;resizable=0;points=[];autosize=1;strokeColor=none;" vertex="1" parent="1">
          <mxGeometry x="355" y="590" width="60" height="20" as="geometry" />
        </mxCell>
        <mxCell id="XbFfIO6vVPorIeohLpD_-144" value="&lt;span style=&quot;text-align: left&quot;&gt;BooleanFiled&lt;/span&gt;" style="text;html=1;align=center;verticalAlign=middle;resizable=0;points=[];autosize=1;strokeColor=none;" vertex="1" parent="1">
          <mxGeometry x="440" y="590" width="100" height="20" as="geometry" />
        </mxCell>
      </root>
    </mxGraphModel>
  </diagram>
</mxfile>
